PathFileType	4	(X/Y/Z)	OpenSim_Sub01_EMGStiffKnee_Magnet.trc
DataRate	CameraRate	NumFrames	NumMarkers	Units	OrigDataRate	OrigDataStartFrame	OrigNumFrames
100	100	26	8	m	100	2088	5567
Frame#	Time	torso_imu_offset_imu	pelvis_imu_offset_imu	tibia_r_imu_offset_imu	femur_r_imu_offset_imu	tibia_l_imu_offset_imu	femur_l_imu_offset_imu	toes_r_imu_offset_imu	toes_l_imu_offset_imu
				X1	Y1	Z1	X2	Y2	Z2	X3	Y3	Z3	X4	Y4	Z4	X5	Y5	Z5	X6	Y6	Z6	X7	Y7	Z7	X8		Y8	Z8	

2088	20.87000000	-0.91186749	-0.14853357	0.10482427	-0.70490207	0.10698205	-0.60714238	-0.13527941	-0.78933594	-0.02348874	-0.69901464	-0.43342497	0.03884293	-0.60031493	0.49938469	0.19812276	-0.48558130	-0.01982577	0.31402106	-0.71270409	-0.26029843	0.21272729	-0.69229790	-0.18732162	-0.35639195
2089	20.88000000	-0.90975710	-0.15268132	0.10224376	-0.70139074	0.11027227	-0.60808028	-0.13368977	-0.79135383	-0.03270298	-0.70666413	-0.42468302	0.04024464	-0.59454813	0.50157185	0.20099913	-0.48526140	-0.01488292	0.31780538	-0.71593926	-0.26667468	0.20177176	-0.69310606	-0.19035126	-0.35373759
2090	20.89000000	-0.90864352	-0.15665352	0.09933817	-0.69735888	0.11364279	-0.60955697	-0.13728122	-0.79306990	-0.04491473	-0.71498443	-0.41607099	0.04034800	-0.58971066	0.50482056	0.20270819	-0.48446452	-0.01024044	0.32272934	-0.71903738	-0.27230975	0.19028669	-0.69447813	-0.19170182	-0.35186247
2091	20.90000000	-0.90870415	-0.16080520	0.09709877	-0.69386760	0.11760646	-0.61166025	-0.14509434	-0.79288792	-0.05593656	-0.72401547	-0.40595705	0.03644811	-0.58726862	0.51029113	0.20241522	-0.48190049	-0.00459492	0.32670767	-0.72178995	-0.27818041	0.17899814	-0.69578047	-0.19153849	-0.34968972
2092	20.91000000	-0.90862752	-0.16505597	0.09586546	-0.69184522	0.12198242	-0.61367260	-0.15646097	-0.79045191	-0.06403132	-0.73272338	-0.39474990	0.03157681	-0.58625802	0.51702767	0.20177940	-0.47804351	0.00189895	0.32988428	-0.72508898	-0.28283778	0.16518625	-0.69663484	-0.19134700	-0.34671690
2093	20.92000000	-0.90694629	-0.16925589	0.09580498	-0.69208077	0.12649369	-0.61474914	-0.17077373	-0.78570014	-0.06805311	-0.73990758	-0.38323489	0.02960784	-0.58528244	0.52370626	0.20275487	-0.47367856	0.00879492	0.33278685	-0.72994137	-0.28446571	0.14574013	-0.69674845	-0.19274151	-0.34263448
2094	20.93000000	-0.90397987	-0.17341799	0.09629508	-0.69364677	0.13134444	-0.61436713	-0.18752880	-0.77954290	-0.06892437	-0.74484416	-0.37218790	0.03114249	-0.58319823	0.52935029	0.20481068	-0.46935891	0.01531789	0.33551845	-0.73602809	-0.28246304	0.12123084	-0.69640095	-0.19560526	-0.33842993
2095	20.94000000	-0.90142267	-0.17768079	0.09610662	-0.69429514	0.13710881	-0.61225230	-0.20630213	-0.77363809	-0.06915922	-0.74717670	-0.36237727	0.03426327	-0.57905689	0.53325094	0.20550368	-0.46545934	0.02044000	0.33785541	-0.74200989	-0.27716409	0.09506284	-0.69631250	-0.19848924	-0.33608838
2096	20.95000000	-0.90047889	-0.18208548	0.09476370	-0.69276201	0.14377200	-0.60877028	-0.22667276	-0.76872686	-0.07059524	-0.74738120	-0.35425277	0.03748712	-0.57269102	0.53524167	0.20353083	-0.46209515	0.02361844	0.33969959	-0.74708466	-0.26909592	0.06939269	-0.69695545	-0.20023500	-0.33664490
2097	20.96000000	-0.90079115	-0.18637468	0.09407476	-0.69080893	0.14954103	-0.60616922	-0.24822303	-0.76276920	-0.07293813	-0.74837906	-0.34731808	0.04081451	-0.56623923	0.53674690	0.20112293	-0.45862434	0.02577107	0.34135086	-0.75212432	-0.25928692	0.04245235	-0.69803230	-0.20064935	-0.33823515
2098	20.97000000	-0.90171667	-0.19022283	0.09609277	-0.69059673	0.15245592	-0.60684413	-0.27057886	-0.75338081	-0.07551449	-0.75326964	-0.34088373	0.04448138	-0.56211889	0.53940698	0.20097433	-0.45434509	0.02806116	0.34315414	-0.75817044	-0.24881895	0.01192670	-0.69912228	-0.19977364	-0.33859227
2099	20.98000000	-0.90266329	-0.19311059	0.10020983	-0.69189087	0.15297741	-0.61018032	-0.29401009	-0.74071917	-0.07787595	-0.76105086	-0.33398718	0.04814325	-0.56053922	0.54369236	0.20293953	-0.44975527	0.03128269	0.34502788	-0.76417142	-0.23818745	-0.02182884	-0.70009050	-0.19848822	-0.33744772
2100	20.99000000	-0.90307792	-0.19436977	0.10377046	-0.69261345	0.15342902	-0.61324692	-0.31928189	-0.72689788	-0.07974741	-0.76756440	-0.32545636	0.05100914	-0.56000969	0.54917274	0.20468753	-0.44627572	0.03594498	0.34656251	-0.76746510	-0.22743631	-0.05640346	-0.70102207	-0.19831861	-0.33607101
2101	21.00000000	-0.90262304	-0.19378847	0.10505495	-0.69141939	0.15525165	-0.61404535	-0.34671488	-0.71330960	-0.08089517	-0.77004675	-0.31498467	0.05266806	-0.55917162	0.55516347	0.20469347	-0.44461015	0.04191821	0.34769917	-0.76633563	-0.21641762	-0.08991014	-0.70196301	-0.19985040	-0.33547615
2102	21.01000000	-0.90159863	-0.19252202	0.10528076	-0.68928202	0.15712117	-0.61352430	-0.37527093	-0.69905541	-0.08119541	-0.77012014	-0.30485319	0.05387210	-0.55718804	0.56029300	0.20399503	-0.44326084	0.04719537	0.34944621	-0.76200200	-0.20444819	-0.12217540	-0.70282637	-0.20082700	-0.33580046
2103	21.02000000	-0.90041785	-0.19192810	0.10612400	-0.68754225	0.15736284	-0.61310735	-0.40369938	-0.68288843	-0.08053919	-0.77012473	-0.29763038	0.05551752	-0.55337876	0.56319694	0.20404922	-0.44043159	0.04961533	0.35290859	-0.75620187	-0.19086860	-0.15337170	-0.70355791	-0.19866857	-0.33700684
2104	21.03000000	-0.89942336	-0.19261058	0.10799851	-0.68662673	0.15670442	-0.61317009	-0.43132799	-0.66469554	-0.07873715	-0.77101013	-0.29302559	0.05743925	-0.54796578	0.56451832	0.20549829	-0.43595059	0.04990501	0.35768450	-0.75031368	-0.17685628	-0.18410798	-0.70496122	-0.19382150	-0.33887414
2105	21.04000000	-0.89890339	-0.19459272	0.11034666	-0.68625829	0.15772221	-0.61328176	-0.45792992	-0.64523620	-0.07553839	-0.77265538	-0.28854810	0.05865560	-0.54186567	0.56644485	0.20835716	-0.43089631	0.05101357	0.36221262	-0.74543885	-0.16500179	-0.21532883	-0.70849953	-0.18906102	-0.34103938
2106	21.05000000	-0.89892157	-0.19754131	0.11279955	-0.68603376	0.16178750	-0.61340900	-0.48339867	-0.62503095	-0.07120027	-0.77474535	-0.28280088	0.05862357	-0.53597269	0.57037789	0.21241576	-0.42619450	0.05463533	0.36539993	-0.74194220	-0.15675415	-0.24762718	-0.71474499	-0.18621507	-0.34296630
2107	21.06000000	-0.89887829	-0.20010817	0.11562354	-0.68522945	0.16654968	-0.61476097	-0.50795137	-0.60382385	-0.06749510	-0.77646968	-0.27780485	0.05816616	-0.53106175	0.57526417	0.21684339	-0.42222154	0.05856624	0.36763356	-0.73802097	-0.15006241	-0.28052523	-0.72157160	-0.18411862	-0.34361460
2108	21.07000000	-0.89812040	-0.20085808	0.11915090	-0.68313970	0.16913561	-0.61862158	-0.53186001	-0.58123889	-0.06630062	-0.77700978	-0.27599917	0.05830269	-0.52779757	0.57966618	0.22071635	-0.41921005	0.06009042	0.36954978	-0.73157573	-0.14230231	-0.31328941	-0.72646656	-0.18119308	-0.34193972
2109	21.08000000	-0.89702780	-0.19986135	0.12294355	-0.68021568	0.16915007	-0.62395556	-0.55532208	-0.55725177	-0.06688069	-0.77679395	-0.27662592	0.05921162	-0.52552547	0.58318754	0.22343588	-0.41676114	0.05961852	0.37141781	-0.72206473	-0.13195388	-0.34432082	-0.72859362	-0.17795066	-0.33822808
2110	21.09000000	-0.89677518	-0.19834693	0.12597079	-0.67779865	0.16810507	-0.62794317	-0.57847755	-0.53210902	-0.06648783	-0.77720985	-0.27646730	0.06042412	-0.52257555	0.58623320	0.22465371	-0.41399008	0.05996701	0.37322445	-0.71014563	-0.11834788	-0.37135552	-0.72840744	-0.17651232	-0.33379053
2111	21.10000000	-0.89789283	-0.19724689	0.12769909	-0.67670464	0.16717068	-0.62878709	-0.60122950	-0.50618335	-0.06341017	-0.77899091	-0.27387530	0.06152547	-0.51786252	0.58909107	0.22442896	-0.41041292	0.06274188	0.37515762	-0.69695891	-0.10167338	-0.39358312	-0.72678961	-0.17798192	-0.32971050
2112	21.11000000	-0.89893548	-0.19652248	0.12911765	-0.67612102	0.16635517	-0.62786461	-0.62278153	-0.48020177	-0.05916672	-0.78085335	-0.27205455	0.06231119	-0.51211569	0.59164000	0.22401209	-0.40677362	0.06576853	0.37802443	-0.68498801	-0.08460478	-0.41456307	-0.72579164	-0.18031826	-0.32631736
2113	21.12000000	-0.89823038	-0.19594939	0.13137364	-0.67502468	0.16543974	-0.62702458	-0.64224469	-0.45492649	-0.05578274	-0.78124267	-0.27474655	0.06263596	-0.50636034	0.59373375	0.22477667	-0.40396145	0.06640806	0.38264879	-0.67667098	-0.07004574	-0.43835700	-0.72751209	-0.18105327	-0.32374917
